<svg width="898" height="707" viewBox="0 0 898 707" fill="none" xmlns="http://www.w3.org/2000/svg">
<path d="M824.332 339.744V314.625C824.332 312.253 823.865 309.905 822.957 307.713C822.049 305.522 820.718 303.531 819.04 301.854C817.362 300.177 815.37 298.847 813.177 297.939C810.985 297.031 808.635 296.564 806.262 296.564H756.298C751.505 296.564 746.909 294.661 743.52 291.274C740.132 287.887 738.228 283.293 738.228 278.503V253.384C738.228 243.409 760.133 235.323 770.113 235.323H772.127C776.919 235.323 781.515 233.42 784.904 230.033C788.293 226.646 790.197 222.052 790.197 217.262V192.143C790.197 189.771 789.729 187.422 788.821 185.231C787.913 183.04 786.582 181.049 784.904 179.372C783.226 177.694 781.234 176.364 779.042 175.456C776.85 174.549 774.5 174.082 772.127 174.082H161.615C159.242 174.082 156.892 174.549 154.7 175.456C152.508 176.364 150.516 177.694 148.838 179.372C147.16 181.049 145.829 183.04 144.921 185.231C144.013 187.422 143.545 189.771 143.545 192.143V217.262C143.545 219.634 144.013 221.982 144.921 224.174C145.829 226.365 147.16 228.356 148.838 230.033C150.516 231.71 152.508 233.04 154.7 233.948C156.892 234.856 159.242 235.323 161.615 235.323C166.407 235.323 171.004 237.226 174.392 240.613C177.781 244 179.685 248.594 179.685 253.384V278.503C179.685 283.293 177.781 287.887 174.392 291.274C171.004 294.661 166.408 296.564 161.615 296.564H91.7377C89.3648 296.564 87.0151 297.031 84.8227 297.939C82.6304 298.847 80.6384 300.177 78.9605 301.854C77.2825 303.531 75.9515 305.522 75.0434 307.713C74.1354 309.905 73.668 312.253 73.668 314.625V339.744C73.668 344.534 75.5717 349.128 78.9605 352.515C82.3492 355.902 86.9453 357.805 91.7377 357.805H119.157C123.949 357.805 128.545 359.708 131.934 363.095C135.323 366.482 137.226 371.076 137.226 375.866V400.986C137.226 403.358 136.759 405.706 135.851 407.897C134.943 410.089 133.612 412.08 131.934 413.757C130.256 415.434 128.264 416.764 126.072 417.672C123.879 418.579 121.53 419.047 119.157 419.047H119.09C114.298 419.047 109.702 420.95 106.313 424.337C102.924 427.724 101.02 432.318 101.02 437.108V462.227C101.02 464.599 101.488 466.947 102.396 469.138C103.304 471.33 104.635 473.321 106.313 474.998C107.991 476.675 109.983 478.005 112.175 478.913C114.368 479.821 116.717 480.288 119.09 480.288H123.057C127.85 480.288 132.446 482.191 135.834 485.578C139.223 488.965 141.127 493.559 141.127 498.349V523.468C141.127 528.258 139.223 532.852 135.834 536.239C132.446 539.626 127.85 541.529 123.057 541.529H99.3991C97.0261 541.529 94.6764 541.996 92.484 542.904C90.2917 543.811 88.2997 545.142 86.6218 546.819C84.9439 548.496 83.6129 550.487 82.7048 552.678C81.7967 554.87 81.3293 557.218 81.3293 559.59V584.709C81.3293 589.499 83.2331 594.093 86.6218 597.48C90.0105 600.867 94.6067 602.77 99.3991 602.77H768.013C772.805 602.77 777.401 600.867 780.79 597.48C784.179 594.093 786.082 589.499 786.082 584.709V559.59C786.082 557.218 785.615 554.87 784.707 552.678C783.799 550.487 782.468 548.496 780.79 546.819C779.112 545.142 777.12 543.811 774.928 542.904C772.735 541.996 770.386 541.529 768.013 541.529H752.345C747.553 541.529 742.957 539.626 739.568 536.239C736.179 532.852 734.275 528.258 734.275 523.468V498.349C734.275 493.559 736.179 488.965 739.568 485.578C742.957 482.191 747.553 480.288 752.345 480.288H789.287C794.08 480.288 798.676 478.385 802.065 474.998C805.453 471.611 807.357 467.017 807.357 462.227V437.108C807.357 432.317 805.453 427.724 802.065 424.337C798.676 420.949 794.08 419.047 789.287 419.047H778.081C773.289 419.047 768.692 417.144 765.304 413.757C761.915 410.37 760.011 405.776 760.011 400.986V375.866C760.011 371.076 761.915 366.482 765.304 363.095C768.692 359.708 773.289 357.805 778.081 357.805H806.262C811.055 357.805 815.651 355.902 819.04 352.515C822.428 349.128 824.332 344.534 824.332 339.744Z" fill="#DBE8EC"/>
<path d="M530.898 498.601L505.231 460.461C525.923 442.086 538.963 416.619 541.773 389.096C544.584 361.573 536.959 333.998 520.407 311.824C503.856 289.65 479.582 274.49 452.386 269.343C425.19 264.196 397.051 269.436 373.535 284.028C350.018 298.619 332.835 321.498 325.384 348.143C317.933 374.787 320.755 403.256 333.294 427.921C345.832 452.585 367.173 471.649 393.098 481.343C419.022 491.037 447.642 490.656 473.299 480.274L498.319 517.286C499.546 519.424 501.183 521.3 503.136 522.805C505.089 524.311 507.319 525.418 509.699 526.062C512.08 526.707 514.564 526.876 517.01 526.561C519.456 526.245 521.816 525.452 523.956 524.225C526.095 522.998 527.971 521.362 529.478 519.41C530.984 517.458 532.092 515.229 532.736 512.85C533.381 510.47 533.55 507.987 533.235 505.543C532.919 503.098 532.125 500.739 530.898 498.601Z" fill="#409CB5"/>
<path d="M432.053 456.458C475.581 456.458 510.867 421.189 510.867 377.683C510.867 334.177 475.581 298.908 432.053 298.908C388.525 298.908 353.239 334.177 353.239 377.683C353.239 421.189 388.525 456.458 432.053 456.458Z" fill="#EE781D"/>
<path d="M432.053 298.908C428.29 298.912 424.533 299.183 420.809 299.72C439.569 302.421 456.727 311.79 469.137 326.11C481.547 340.429 488.378 358.739 488.378 377.684C488.378 396.628 481.547 414.938 469.137 429.258C456.727 443.577 439.569 452.946 420.809 455.647C431.523 457.191 442.44 456.513 452.88 453.654C463.32 450.795 473.059 445.817 481.489 439.031C489.92 432.244 496.861 423.795 501.881 414.209C506.9 404.623 509.89 394.106 510.664 383.315C511.439 372.523 509.98 361.688 506.38 351.484C502.78 341.281 497.116 331.928 489.741 324.008C482.365 316.089 473.436 309.773 463.511 305.455C453.586 301.137 442.878 298.908 432.053 298.908Z" fill="#E06714"/>
<path d="M389.838 391.41C396.575 391.41 402.036 385.952 402.036 379.218C402.036 372.485 396.575 367.027 389.838 367.027C383.102 367.027 377.641 372.485 377.641 379.218C377.641 385.952 383.102 391.41 389.838 391.41Z" fill="#F9AE2B"/>
<path d="M471.49 371.118C476.153 371.118 479.934 367.34 479.934 362.679C479.934 358.017 476.153 354.239 471.49 354.239C466.826 354.239 463.046 358.017 463.046 362.679C463.046 367.34 466.826 371.118 471.49 371.118Z" fill="#E06714"/>
<path d="M424.338 351.724C427.447 351.724 429.968 349.205 429.968 346.097C429.968 342.99 427.447 340.47 424.338 340.47C421.229 340.47 418.708 342.99 418.708 346.097C418.708 349.205 421.229 351.724 424.338 351.724Z" fill="#E06714"/>
<path d="M426.423 426.659C429.532 426.659 432.052 424.14 432.052 421.032C432.052 417.925 429.532 415.405 426.423 415.405C423.313 415.405 420.793 417.925 420.793 421.032C420.793 424.14 423.313 426.659 426.423 426.659Z" fill="#E06714"/>
<path d="M458.957 408.037C463.163 408.037 466.573 404.629 466.573 400.424C466.573 396.22 463.163 392.812 458.957 392.812C454.75 392.812 451.34 396.22 451.34 400.424C451.34 404.629 454.75 408.037 458.957 408.037Z" fill="#F9AE2B"/>
<path d="M373.314 454.732C375.704 454.732 377.641 452.796 377.641 450.407C377.641 448.019 375.704 446.083 373.314 446.083C370.924 446.083 368.987 448.019 368.987 450.407C368.987 452.796 370.924 454.732 373.314 454.732Z" fill="#3086A3"/>
<path d="M515.194 335.632C517.583 335.632 519.521 333.695 519.521 331.307C519.521 328.918 517.583 326.982 515.194 326.982C512.804 326.982 510.867 328.918 510.867 331.307C510.867 333.695 512.804 335.632 515.194 335.632Z" fill="#3086A3"/>
<path d="M512.565 423.983C509.939 429.555 506.719 434.827 502.961 439.708C499.074 444.56 494.712 449.013 489.939 452.999C485.067 456.92 479.825 460.359 474.289 463.27C463.088 469.017 450.791 472.312 438.216 472.935C435.082 472.964 431.954 473.079 428.83 472.89C425.711 472.715 422.604 472.368 419.524 471.851C407.253 469.882 395.594 465.14 385.434 457.986C396.372 463.09 408.086 466.332 420.092 467.579C431.919 468.732 443.858 467.754 455.339 464.692C461.05 463.137 466.617 461.097 471.98 458.593C477.324 456.002 482.455 452.993 487.324 449.593C492.154 446.063 496.704 442.164 500.931 437.931C505.13 433.558 509.017 428.898 512.565 423.983ZM341.01 396.1C336.676 380.154 337.023 363.298 342.009 347.543C344.477 339.607 348.028 332.049 352.561 325.081C354.83 321.595 357.34 318.271 360.072 315.133C362.782 311.974 365.701 308.999 368.808 306.229C371.939 303.485 375.237 300.938 378.685 298.604C380.452 297.507 382.157 296.306 383.988 295.313L386.699 293.769L389.489 292.372C391.336 291.416 393.282 290.666 395.178 289.82C397.131 289.107 399.041 288.285 401.034 287.69C404.969 286.375 408.995 285.348 413.08 284.616C421.219 283.179 429.516 282.857 437.742 283.658C445.883 284.487 453.86 286.491 461.426 289.606C453.629 287.608 445.626 286.52 437.579 286.365C429.632 286.245 421.699 287.076 413.95 288.838C406.269 290.646 398.843 293.402 391.843 297.042C388.352 298.849 384.972 300.861 381.719 303.068C378.492 305.309 375.404 307.744 372.472 310.359C360.612 320.828 351.541 334.08 346.077 348.922C340.605 364.009 338.867 380.196 341.01 396.1Z" fill="#3086A3"/>
<path d="M280.824 459.152V491.14C280.824 518.921 282.508 521.026 312.407 523.971V535.758H213.866V523.971C245.45 521.026 247.555 518.5 247.555 490.719V459.152H136.38V446.525C176.387 389.701 219.762 328.249 261.874 269.741H280.824V438.947H322.094V459.152L280.824 459.152ZM247.555 313.938C221.025 352.661 191.546 395.593 162.49 438.947H247.555V313.938ZM696.884 459.152V491.14C696.884 518.921 698.569 521.026 728.469 523.971V535.758H629.927V523.971C661.51 521.026 663.616 518.5 663.616 490.719V459.152H552.442V446.525C592.447 389.701 635.822 328.249 677.935 269.741H696.884V438.947H738.155V459.152L696.884 459.152ZM663.616 313.938C637.086 352.661 607.607 395.593 578.551 438.947H663.616V313.938Z" fill="#409CB5"/>
<path d="M164.714 164.774H209.342" stroke="#B9D4DB" stroke-width="3" stroke-miterlimit="10" stroke-linecap="round"/>
<path d="M164.714 177.63H209.342" stroke="#B9D4DB" stroke-width="3" stroke-miterlimit="10" stroke-linecap="round"/>
<path d="M164.714 190.487H209.342" stroke="#B9D4DB" stroke-width="3" stroke-miterlimit="10" stroke-linecap="round"/>
<path d="M377.982 545.794H422.61" stroke="#B9D4DB" stroke-width="3" stroke-miterlimit="10" stroke-linecap="round"/>
<path d="M377.982 558.651H422.61" stroke="#B9D4DB" stroke-width="3" stroke-miterlimit="10" stroke-linecap="round"/>
<path d="M377.982 571.507H422.61" stroke="#B9D4DB" stroke-width="3" stroke-miterlimit="10" stroke-linecap="round"/>
<path d="M740.664 375.569H785.29" stroke="#B9D4DB" stroke-width="3" stroke-miterlimit="10" stroke-linecap="round"/>
<path d="M740.664 388.426H785.29" stroke="#B9D4DB" stroke-width="3" stroke-miterlimit="10" stroke-linecap="round"/>
<path d="M740.664 401.282H785.29" stroke="#B9D4DB" stroke-width="3" stroke-miterlimit="10" stroke-linecap="round"/>
<path d="M111.786 574.515C124.32 574.515 134.482 564.358 134.482 551.83C134.482 539.302 124.32 529.145 111.786 529.145C99.2512 529.145 89.0898 539.302 89.0898 551.83C89.0898 564.358 99.2512 574.515 111.786 574.515Z" fill="#B9D4DB"/>
<path d="M140.349 527.245C146.878 527.245 152.171 521.955 152.171 515.429C152.171 508.904 146.878 503.613 140.349 503.613C133.82 503.613 128.527 508.904 128.527 515.429C128.527 521.955 133.82 527.245 140.349 527.245Z" fill="#B9D4DB"/>
<path d="M199.107 578.5C204.758 578.5 209.339 573.921 209.339 568.273C209.339 562.625 204.758 558.047 199.107 558.047C193.456 558.047 188.875 562.625 188.875 568.273C188.875 573.921 193.456 578.5 199.107 578.5Z" fill="#B9D4DB"/>
<path d="M175.345 544.775C179.111 544.775 182.164 541.724 182.164 537.959C182.164 534.195 179.111 531.143 175.345 531.143C171.578 531.143 168.525 534.195 168.525 537.959C168.525 541.724 171.578 544.775 175.345 544.775Z" fill="#B9D4DB"/>
<path d="M159.293 588.787C168.321 588.787 175.64 581.472 175.64 572.448C175.64 563.423 168.321 556.108 159.293 556.108C150.264 556.108 142.945 563.423 142.945 572.448C142.945 581.472 150.264 588.787 159.293 588.787Z" fill="#B9D4DB"/>
<path d="M425.903 246.783C438.438 246.783 448.599 236.627 448.599 224.098C448.599 211.57 438.438 201.414 425.903 201.414C413.369 201.414 403.208 211.57 403.208 224.098C403.208 236.627 413.369 246.783 425.903 246.783Z" fill="#B9D4DB"/>
<path d="M380.882 257.01C386.533 257.01 391.114 252.431 391.114 246.783C391.114 241.135 386.533 236.556 380.882 236.556C375.231 236.556 370.65 241.135 370.65 246.783C370.65 252.431 375.231 257.01 380.882 257.01Z" fill="#B9D4DB"/>
<path d="M368.339 224.098C377.368 224.098 384.687 216.783 384.687 207.759C384.687 198.734 377.368 191.419 368.339 191.419C359.31 191.419 351.991 198.734 351.991 207.759C351.991 216.783 359.31 224.098 368.339 224.098Z" fill="#B9D4DB"/>
</svg>
