<svg width="48" height="49" viewBox="0 0 48 49" fill="none" xmlns="http://www.w3.org/2000/svg">
<rect y="0.5" width="48" height="48" rx="24" fill="#F3F1FF"/>
<path d="M15.5846 31.5746C14.2435 32.2971 13.042 32.6482 12.4852 32.0914C10.834 30.4401 15.027 24.6138 16.3976 23.0435C16.4389 22.8463 16.4789 22.6574 16.5168 22.4788L16.5216 22.4796L15.5372 27.5265C15.3724 28.3186 15.2365 29.9713 15.5846 31.5746Z" fill="url(#paint0_radial_980_281)"/>
<path d="M15.5846 31.5746C14.2435 32.2971 13.042 32.6482 12.4852 32.0914C10.834 30.4401 15.027 24.6138 16.3976 23.0435C16.4389 22.8463 16.4789 22.6574 16.5168 22.4788L16.5216 22.4796L15.5372 27.5265C15.3724 28.3186 15.2365 29.9713 15.5846 31.5746Z" fill="url(#paint1_linear_980_281)"/>
<path d="M15.5846 31.5746C14.2435 32.2971 13.042 32.6482 12.4852 32.0914C10.834 30.4401 15.027 24.6138 16.3976 23.0435C16.4389 22.8463 16.4789 22.6574 16.5168 22.4788L16.5216 22.4796L15.5372 27.5265C15.3724 28.3186 15.2365 29.9713 15.5846 31.5746Z" fill="url(#paint2_radial_980_281)"/>
<path d="M32.3423 31.5746C33.6833 32.2971 34.8849 32.6482 35.4416 32.0913C37.0929 30.4401 32.8412 24.6138 31.4707 23.0435C31.541 23.4366 32.2446 26.7826 32.3896 27.5265C32.5544 28.3186 32.6904 29.9713 32.3423 31.5746Z" fill="url(#paint3_linear_980_281)"/>
<path d="M32.3423 31.5746C33.6833 32.2971 34.8849 32.6482 35.4416 32.0913C37.0929 30.4401 32.8412 24.6138 31.4707 23.0435C31.541 23.4366 32.2446 26.7826 32.3896 27.5265C32.5544 28.3186 32.6904 29.9713 32.3423 31.5746Z" fill="url(#paint4_linear_980_281)"/>
<g filter="url(#filter0_f_980_281)">
<path d="M35.4245 30.6422C34.3374 27.7856 32.0954 24.7913 31.2402 23.7451L30.709 27.0576C31.5535 27.5544 33.6639 29.4528 34.986 30.8857C35.1724 31.0878 35.5223 30.8992 35.4245 30.6422Z" fill="url(#paint5_linear_980_281)" fill-opacity="0.75"/>
</g>
<path d="M24.067 14.6318C27.5262 14.6318 30.7692 17.8027 31.0574 20.9376C31.0849 21.2364 31.2328 21.9283 31.4265 22.8158L32.4133 27.5264C32.5782 28.3193 32.7143 29.9744 32.3648 31.5792C32.1241 32.5776 31.6938 33.537 31.1121 34.4044L30.8482 37.4724C30.8482 37.4724 25.7151 38.3938 23.8533 38.3674C22.0693 38.3417 17.1325 37.4724 17.1325 37.4724L16.8222 34.4044C16.2502 33.5409 15.8259 32.5816 15.5857 31.5739L15.5846 31.5745C15.2365 29.9712 15.3725 28.3185 15.5372 27.5264L16.5216 22.4795L16.5168 22.4786L16.5932 22.1193C16.7118 21.562 16.8013 21.1415 16.8364 20.9376C17.3889 17.7307 20.1995 14.6318 24.067 14.6318Z" fill="url(#paint6_linear_980_281)"/>
<path d="M24.067 14.6318C27.5262 14.6318 30.7692 17.8027 31.0574 20.9376C31.0849 21.2364 31.2328 21.9283 31.4265 22.8158L32.4133 27.5264C32.5782 28.3193 32.7143 29.9744 32.3648 31.5792C32.1241 32.5776 31.6938 33.537 31.1121 34.4044L30.8482 37.4724C30.8482 37.4724 25.7151 38.3938 23.8533 38.3674C22.0693 38.3417 17.1325 37.4724 17.1325 37.4724L16.8222 34.4044C16.2502 33.5409 15.8259 32.5816 15.5857 31.5739L15.5846 31.5745C15.2365 29.9712 15.3725 28.3185 15.5372 27.5264L16.5216 22.4795L16.5168 22.4786L16.5932 22.1193C16.7118 21.562 16.8013 21.1415 16.8364 20.9376C17.3889 17.7307 20.1995 14.6318 24.067 14.6318Z" fill="url(#paint7_radial_980_281)"/>
<path d="M24.067 14.6318C27.5262 14.6318 30.7692 17.8027 31.0574 20.9376C31.0849 21.2364 31.2328 21.9283 31.4265 22.8158L32.4133 27.5264C32.5782 28.3193 32.7143 29.9744 32.3648 31.5792C32.1241 32.5776 31.6938 33.537 31.1121 34.4044L30.8482 37.4724C30.8482 37.4724 25.7151 38.3938 23.8533 38.3674C22.0693 38.3417 17.1325 37.4724 17.1325 37.4724L16.8222 34.4044C16.2502 33.5409 15.8259 32.5816 15.5857 31.5739L15.5846 31.5745C15.2365 29.9712 15.3725 28.3185 15.5372 27.5264L16.5216 22.4795L16.5168 22.4786L16.5932 22.1193C16.7118 21.562 16.8013 21.1415 16.8364 20.9376C17.3889 17.7307 20.1995 14.6318 24.067 14.6318Z" fill="url(#paint8_radial_980_281)"/>
<path d="M24.067 14.6318C27.5262 14.6318 30.7692 17.8027 31.0574 20.9376C31.0849 21.2364 31.2328 21.9283 31.4265 22.8158L32.4133 27.5264C32.5782 28.3193 32.7143 29.9744 32.3648 31.5792C32.1241 32.5776 31.6938 33.537 31.1121 34.4044L30.8482 37.4724C30.8482 37.4724 25.7151 38.3938 23.8533 38.3674C22.0693 38.3417 17.1325 37.4724 17.1325 37.4724L16.8222 34.4044C16.2502 33.5409 15.8259 32.5816 15.5857 31.5739L15.5846 31.5745C15.2365 29.9712 15.3725 28.3185 15.5372 27.5264L16.5216 22.4795L16.5168 22.4786L16.5932 22.1193C16.7118 21.562 16.8013 21.1415 16.8364 20.9376C17.3889 17.7307 20.1995 14.6318 24.067 14.6318Z" fill="url(#paint9_radial_980_281)"/>
<path d="M24.067 14.6318C27.5262 14.6318 30.7692 17.8027 31.0574 20.9376C31.0849 21.2364 31.2328 21.9283 31.4265 22.8158L32.4133 27.5264C32.5782 28.3193 32.7143 29.9744 32.3648 31.5792C32.1241 32.5776 31.6938 33.537 31.1121 34.4044L30.8482 37.4724C30.8482 37.4724 25.7151 38.3938 23.8533 38.3674C22.0693 38.3417 17.1325 37.4724 17.1325 37.4724L16.8222 34.4044C16.2502 33.5409 15.8259 32.5816 15.5857 31.5739L15.5846 31.5745C15.2365 29.9712 15.3725 28.3185 15.5372 27.5264L16.5216 22.4795L16.5168 22.4786L16.5932 22.1193C16.7118 21.562 16.8013 21.1415 16.8364 20.9376C17.3889 17.7307 20.1995 14.6318 24.067 14.6318Z" fill="url(#paint10_radial_980_281)"/>
<g filter="url(#filter1_f_980_281)">
<path d="M28.8221 24.711C29.3082 23.896 29.5778 22.8587 29.5778 21.5841C29.5778 20.246 28.9128 18.9481 28.0265 17.9879C27.1434 17.0311 26.0154 16.3832 25.0639 16.3832C24.8864 16.3832 24.7708 16.4845 24.6944 16.6072C24.6237 16.7206 24.5757 16.8686 24.532 17.0033L24.529 17.0126C24.472 17.1883 24.4189 17.3484 24.3349 17.467C24.2574 17.5765 24.1572 17.6456 23.9937 17.6456C23.8262 17.6456 23.7182 17.5727 23.6323 17.4561C23.5406 17.3317 23.4799 17.165 23.4161 16.9869L23.413 16.9782C23.3662 16.8475 23.3156 16.7062 23.2472 16.5985C23.1747 16.4842 23.066 16.3831 22.8995 16.3831C21.9553 16.3831 20.8184 17.0139 19.9242 17.9632C19.0268 18.9158 18.3496 20.214 18.3496 21.5841C18.3496 22.88 18.6234 23.9115 19.1025 24.7136C17.744 25.9828 16.896 27.7791 16.896 29.7708C16.896 33.6201 20.062 36.7376 23.9637 36.7376C27.8653 36.7376 31.0314 33.6201 31.0314 29.7708C31.0314 27.7778 30.1823 25.9804 28.8221 24.711Z" stroke="url(#paint11_linear_980_281)" stroke-width="0.25"/>
</g>
<g filter="url(#filter2_i_980_281)">
<path d="M28.6619 24.7334C29.1671 23.9293 29.4528 22.8873 29.4528 21.5841C29.4528 18.9882 26.8675 16.5082 25.0639 16.5082C24.8241 16.5082 24.7399 16.7676 24.6479 17.0512C24.5369 17.3933 24.4144 17.7706 23.9937 17.7706C23.564 17.7706 23.4229 17.3768 23.2984 17.0291C23.2 16.7542 23.1119 16.5081 22.8995 16.5081C21.1079 16.5081 18.4746 18.9249 18.4746 21.5841C18.4746 22.91 18.7651 23.9455 19.2628 24.7359C17.8846 25.9862 17.021 27.7791 17.021 29.7708C17.021 33.5494 20.1293 36.6126 23.9637 36.6126C27.798 36.6126 30.9064 33.5494 30.9064 29.7708C30.9064 27.7778 30.0417 25.9838 28.6619 24.7334Z" fill="url(#paint12_linear_980_281)"/>
<path d="M28.6619 24.7334C29.1671 23.9293 29.4528 22.8873 29.4528 21.5841C29.4528 18.9882 26.8675 16.5082 25.0639 16.5082C24.8241 16.5082 24.7399 16.7676 24.6479 17.0512C24.5369 17.3933 24.4144 17.7706 23.9937 17.7706C23.564 17.7706 23.4229 17.3768 23.2984 17.0291C23.2 16.7542 23.1119 16.5081 22.8995 16.5081C21.1079 16.5081 18.4746 18.9249 18.4746 21.5841C18.4746 22.91 18.7651 23.9455 19.2628 24.7359C17.8846 25.9862 17.021 27.7791 17.021 29.7708C17.021 33.5494 20.1293 36.6126 23.9637 36.6126C27.798 36.6126 30.9064 33.5494 30.9064 29.7708C30.9064 27.7778 30.0417 25.9838 28.6619 24.7334Z" fill="url(#paint13_radial_980_281)"/>
</g>
<g filter="url(#filter3_f_980_281)">
<path d="M21.3848 25.8975L26.6152 23.0537L21.3848 22.7764V25.8975Z" fill="url(#paint14_linear_980_281)"/>
<path d="M21.3848 25.8975L26.6152 23.0537L21.3848 22.7764V25.8975Z" fill="url(#paint15_linear_980_281)"/>
</g>
<path d="M21.3848 23.0537H26.5957C26.5957 21.6148 25.4292 20.4482 23.9902 20.4482C22.5513 20.4482 21.3848 21.6148 21.3848 23.0537Z" fill="#F97725"/>
<path d="M21.3848 23.0537H26.5957C26.5957 21.6148 25.4292 20.4482 23.9902 20.4482C22.5513 20.4482 21.3848 21.6148 21.3848 23.0537Z" fill="url(#paint16_radial_980_281)"/>
<path d="M21.3848 23.0537H26.5957C26.5957 21.6148 25.4292 20.4482 23.9902 20.4482C22.5513 20.4482 21.3848 21.6148 21.3848 23.0537Z" fill="url(#paint17_radial_980_281)"/>
<path d="M21.3848 23.0537H26.5957C26.5957 21.6148 25.4292 20.4482 23.9902 20.4482C22.5513 20.4482 21.3848 21.6148 21.3848 23.0537Z" fill="url(#paint18_linear_980_281)"/>
<g filter="url(#filter4_f_980_281)">
<rect x="21.9355" y="18.3701" width="0.90625" height="1.64062" rx="0.453125" fill="#B5AABA"/>
</g>
<g filter="url(#filter5_f_980_281)">
<rect x="24.9355" y="18.3701" width="0.90625" height="1.64062" rx="0.453125" fill="#B5AABA"/>
</g>
<rect x="22.0371" y="18.292" width="0.90625" height="1.64062" rx="0.453125" fill="url(#paint19_linear_980_281)"/>
<rect x="22.0371" y="18.292" width="0.90625" height="1.64062" rx="0.453125" fill="url(#paint20_linear_980_281)"/>
<rect x="22.0371" y="18.292" width="0.90625" height="1.64062" rx="0.453125" fill="url(#paint21_radial_980_281)"/>
<rect x="25.0371" y="18.292" width="0.90625" height="1.64062" rx="0.453125" fill="url(#paint22_linear_980_281)"/>
<rect x="25.0371" y="18.292" width="0.90625" height="1.64062" rx="0.453125" fill="url(#paint23_linear_980_281)"/>
<rect x="25.0371" y="18.292" width="0.90625" height="1.64062" rx="0.453125" fill="url(#paint24_radial_980_281)"/>
<g filter="url(#filter6_f_980_281)">
<rect x="25.4512" y="18.5139" width="0.320312" height="1.19687" rx="0.160156" fill="#76676A"/>
</g>
<g filter="url(#filter7_f_980_281)">
<rect x="22.4355" y="18.5139" width="0.320312" height="1.19687" rx="0.160156" fill="#76676A"/>
</g>
<path d="M23.9902 38.3681L31.7721 38.3683C31.9846 38.3683 32.1578 38.1957 32.148 37.9834C32.088 36.6803 31.7252 35.456 31.1284 34.3796C29.5865 36.6945 26.9674 38.3594 23.9902 38.3681Z" fill="#FF9D63"/>
<path d="M23.9902 38.3681L31.7721 38.3683C31.9846 38.3683 32.1578 38.1957 32.148 37.9834C32.088 36.6803 31.7252 35.456 31.1284 34.3796C29.5865 36.6945 26.9674 38.3594 23.9902 38.3681Z" fill="url(#paint25_linear_980_281)"/>
<path d="M23.9902 38.3681L31.7721 38.3683C31.9846 38.3683 32.1578 38.1957 32.148 37.9834C32.088 36.6803 31.7252 35.456 31.1284 34.3796C29.5865 36.6945 26.9674 38.3594 23.9902 38.3681Z" fill="url(#paint26_radial_980_281)"/>
<path d="M23.9902 38.3681L31.7721 38.3683C31.9846 38.3683 32.1578 38.1957 32.148 37.9834C32.088 36.6803 31.7252 35.456 31.1284 34.3796C29.5865 36.6945 26.9674 38.3594 23.9902 38.3681Z" fill="url(#paint27_radial_980_281)"/>
<path d="M23.9902 38.3681L31.7721 38.3683C31.9846 38.3683 32.1578 38.1957 32.148 37.9834C32.088 36.6803 31.7252 35.456 31.1284 34.3796C29.5865 36.6945 26.9674 38.3594 23.9902 38.3681Z" fill="url(#paint28_linear_980_281)"/>
<path d="M23.9639 38.3681L16.182 38.3683C15.9695 38.3683 15.7963 38.1957 15.8061 37.9834C15.8661 36.6803 16.2289 35.456 16.8257 34.3796C18.3676 36.6945 20.9867 38.3594 23.9639 38.3681Z" fill="#DD4533"/>
<path d="M23.9639 38.3681L16.182 38.3683C15.9695 38.3683 15.7963 38.1957 15.8061 37.9834C15.8661 36.6803 16.2289 35.456 16.8257 34.3796C18.3676 36.6945 20.9867 38.3594 23.9639 38.3681Z" fill="url(#paint29_linear_980_281)"/>
<path d="M23.9639 38.3681L16.182 38.3683C15.9695 38.3683 15.7963 38.1957 15.8061 37.9834C15.8661 36.6803 16.2289 35.456 16.8257 34.3796C18.3676 36.6945 20.9867 38.3594 23.9639 38.3681Z" fill="url(#paint30_linear_980_281)"/>
<defs>
<filter id="filter0_f_980_281" x="29.959" y="22.9951" width="6.23242" height="8.72559" filterUnits="userSpaceOnUse" color-interpolation-filters="sRGB">
<feFlood flood-opacity="0" result="BackgroundImageFix"/>
<feBlend mode="normal" in="SourceGraphic" in2="BackgroundImageFix" result="shape"/>
<feGaussianBlur stdDeviation="0.375" result="effect1_foregroundBlur_980_281"/>
</filter>
<filter id="filter1_f_980_281" x="16.571" y="16.0581" width="14.7853" height="21.0045" filterUnits="userSpaceOnUse" color-interpolation-filters="sRGB">
<feFlood flood-opacity="0" result="BackgroundImageFix"/>
<feBlend mode="normal" in="SourceGraphic" in2="BackgroundImageFix" result="shape"/>
<feGaussianBlur stdDeviation="0.1" result="effect1_foregroundBlur_980_281"/>
</filter>
<filter id="filter2_i_980_281" x="17.021" y="16.3081" width="13.8853" height="20.3045" filterUnits="userSpaceOnUse" color-interpolation-filters="sRGB">
<feFlood flood-opacity="0" result="BackgroundImageFix"/>
<feBlend mode="normal" in="SourceGraphic" in2="BackgroundImageFix" result="shape"/>
<feColorMatrix in="SourceAlpha" type="matrix" values="0 0 0 0 0 0 0 0 0 0 0 0 0 0 0 0 0 0 127 0" result="hardAlpha"/>
<feOffset dy="-0.2"/>
<feGaussianBlur stdDeviation="0.25"/>
<feComposite in2="hardAlpha" operator="arithmetic" k2="-1" k3="1"/>
<feColorMatrix type="matrix" values="0 0 0 0 0.711813 0 0 0 0 0.656753 0 0 0 0 0.754167 0 0 0 1 0"/>
<feBlend mode="normal" in2="shape" result="effect1_innerShadow_980_281"/>
</filter>
<filter id="filter3_f_980_281" x="20.6348" y="22.0264" width="6.73047" height="4.62109" filterUnits="userSpaceOnUse" color-interpolation-filters="sRGB">
<feFlood flood-opacity="0" result="BackgroundImageFix"/>
<feBlend mode="normal" in="SourceGraphic" in2="BackgroundImageFix" result="shape"/>
<feGaussianBlur stdDeviation="0.375" result="effect1_foregroundBlur_980_281"/>
</filter>
<filter id="filter4_f_980_281" x="21.4355" y="17.8701" width="1.90625" height="2.64062" filterUnits="userSpaceOnUse" color-interpolation-filters="sRGB">
<feFlood flood-opacity="0" result="BackgroundImageFix"/>
<feBlend mode="normal" in="SourceGraphic" in2="BackgroundImageFix" result="shape"/>
<feGaussianBlur stdDeviation="0.25" result="effect1_foregroundBlur_980_281"/>
</filter>
<filter id="filter5_f_980_281" x="24.4355" y="17.8701" width="1.90625" height="2.64062" filterUnits="userSpaceOnUse" color-interpolation-filters="sRGB">
<feFlood flood-opacity="0" result="BackgroundImageFix"/>
<feBlend mode="normal" in="SourceGraphic" in2="BackgroundImageFix" result="shape"/>
<feGaussianBlur stdDeviation="0.25" result="effect1_foregroundBlur_980_281"/>
</filter>
<filter id="filter6_f_980_281" x="25.0512" y="18.1139" width="1.12031" height="1.99678" filterUnits="userSpaceOnUse" color-interpolation-filters="sRGB">
<feFlood flood-opacity="0" result="BackgroundImageFix"/>
<feBlend mode="normal" in="SourceGraphic" in2="BackgroundImageFix" result="shape"/>
<feGaussianBlur stdDeviation="0.2" result="effect1_foregroundBlur_980_281"/>
</filter>
<filter id="filter7_f_980_281" x="22.0355" y="18.1139" width="1.12031" height="1.99678" filterUnits="userSpaceOnUse" color-interpolation-filters="sRGB">
<feFlood flood-opacity="0" result="BackgroundImageFix"/>
<feBlend mode="normal" in="SourceGraphic" in2="BackgroundImageFix" result="shape"/>
<feGaussianBlur stdDeviation="0.2" result="effect1_foregroundBlur_980_281"/>
</filter>
<radialGradient id="paint0_radial_980_281" cx="0" cy="0" r="1" gradientUnits="userSpaceOnUse" gradientTransform="translate(14.1466 30.5578) rotate(-62.4824) scale(5.88447 3.37643)">
<stop stop-color="#652998"/>
<stop offset="1" stop-color="#501E65"/>
</radialGradient>
<linearGradient id="paint1_linear_980_281" x1="12.9591" y1="33.0578" x2="15.2403" y2="29.8703" gradientUnits="userSpaceOnUse">
<stop stop-color="#462096"/>
<stop offset="1" stop-color="#462096" stop-opacity="0"/>
</linearGradient>
<radialGradient id="paint2_radial_980_281" cx="0" cy="0" r="1" gradientUnits="userSpaceOnUse" gradientTransform="translate(17.2716 27.4222) rotate(130.427) scale(7.30067 3.02415)">
<stop offset="0.786291" stop-color="#493659" stop-opacity="0"/>
<stop offset="1" stop-color="#493659"/>
</radialGradient>
<linearGradient id="paint3_linear_980_281" x1="33.6438" y1="23.0435" x2="33.6438" y2="32.3655" gradientUnits="userSpaceOnUse">
<stop stop-color="#814690"/>
<stop offset="1" stop-color="#511691"/>
</linearGradient>
<linearGradient id="paint4_linear_980_281" x1="35.3027" y1="33.089" x2="33.244" y2="30.6927" gradientUnits="userSpaceOnUse">
<stop stop-color="#462096"/>
<stop offset="1" stop-color="#462096" stop-opacity="0"/>
</linearGradient>
<linearGradient id="paint5_linear_980_281" x1="36.3169" y1="31.8701" x2="31.8027" y2="23.9951" gradientUnits="userSpaceOnUse">
<stop stop-color="#8760B5"/>
<stop offset="1" stop-color="#8760B5" stop-opacity="0"/>
</linearGradient>
<linearGradient id="paint6_linear_980_281" x1="23.9752" y1="14.3076" x2="23.9752" y2="38.368" gradientUnits="userSpaceOnUse">
<stop stop-color="#57275F"/>
<stop offset="1" stop-color="#4C20A3"/>
</linearGradient>
<radialGradient id="paint7_radial_980_281" cx="0" cy="0" r="1" gradientUnits="userSpaceOnUse" gradientTransform="translate(29.9904 16.5576) rotate(138.39) scale(12.706 18.4562)">
<stop stop-color="#813687"/>
<stop offset="1" stop-color="#813687" stop-opacity="0"/>
</radialGradient>
<radialGradient id="paint8_radial_980_281" cx="0" cy="0" r="1" gradientUnits="userSpaceOnUse" gradientTransform="translate(23.9753 41.3076) rotate(-90) scale(5.8125 7.20261)">
<stop stop-color="#552EAA"/>
<stop offset="1" stop-color="#552EAA" stop-opacity="0"/>
</radialGradient>
<radialGradient id="paint9_radial_980_281" cx="0" cy="0" r="1" gradientUnits="userSpaceOnUse" gradientTransform="translate(25.0841 16.5889) rotate(38.7966) scale(1.02245 0.990695)">
<stop stop-color="#884790"/>
<stop offset="1" stop-color="#884790" stop-opacity="0"/>
</radialGradient>
<radialGradient id="paint10_radial_980_281" cx="0" cy="0" r="1" gradientUnits="userSpaceOnUse" gradientTransform="translate(28.0529 19.4326) rotate(-35.3112) scale(1.83818 2.42576)">
<stop stop-color="#884790"/>
<stop offset="1" stop-color="#884790" stop-opacity="0"/>
</radialGradient>
<linearGradient id="paint11_linear_980_281" x1="23.9637" y1="16.5081" x2="23.9637" y2="36.6126" gradientUnits="userSpaceOnUse">
<stop stop-color="#60166F"/>
<stop offset="1" stop-color="#51309A"/>
</linearGradient>
<linearGradient id="paint12_linear_980_281" x1="23.9637" y1="17.7453" x2="23.9637" y2="36.6126" gradientUnits="userSpaceOnUse">
<stop stop-color="#D4C5DF"/>
<stop offset="1" stop-color="#EFC3FF"/>
</linearGradient>
<radialGradient id="paint13_radial_980_281" cx="0" cy="0" r="1" gradientUnits="userSpaceOnUse" gradientTransform="translate(29.8028 23.6828) rotate(171.69) scale(11.2431 13.4274)">
<stop stop-color="#FFF6FF"/>
<stop offset="1" stop-color="#FFF6FF" stop-opacity="0"/>
</radialGradient>
<linearGradient id="paint14_linear_980_281" x1="26.2402" y1="23.0537" x2="21.3848" y2="24.9287" gradientUnits="userSpaceOnUse">
<stop stop-color="#E0B4E2"/>
<stop offset="1" stop-color="#E0B4E2" stop-opacity="0"/>
</linearGradient>
<linearGradient id="paint15_linear_980_281" x1="24" y1="22.4326" x2="24" y2="23.5264" gradientUnits="userSpaceOnUse">
<stop stop-color="#D9A7E6"/>
<stop offset="1" stop-color="#D9A7E6" stop-opacity="0"/>
</linearGradient>
<radialGradient id="paint16_radial_980_281" cx="0" cy="0" r="1" gradientUnits="userSpaceOnUse" gradientTransform="translate(25.7715 23.0537) rotate(180) scale(2.75 2.69572)">
<stop stop-color="#FFA864"/>
<stop offset="1" stop-color="#FFA864" stop-opacity="0"/>
</radialGradient>
<radialGradient id="paint17_radial_980_281" cx="0" cy="0" r="1" gradientUnits="userSpaceOnUse" gradientTransform="translate(24.3652 19.9014) rotate(106.025) scale(1.92439 1.93572)">
<stop stop-color="#FFA864"/>
<stop offset="1" stop-color="#FFA864" stop-opacity="0"/>
</radialGradient>
<linearGradient id="paint18_linear_980_281" x1="23.9902" y1="23.3076" x2="23.9902" y2="22.7139" gradientUnits="userSpaceOnUse">
<stop offset="0.136364" stop-color="#FF5762"/>
<stop offset="1" stop-color="#FF5762" stop-opacity="0"/>
</linearGradient>
<linearGradient id="paint19_linear_980_281" x1="22.9434" y1="19.0098" x2="22.4188" y2="19.0098" gradientUnits="userSpaceOnUse">
<stop offset="0.225" stop-color="#594C4F"/>
<stop offset="1" stop-color="#392833"/>
</linearGradient>
<linearGradient id="paint20_linear_980_281" x1="23.085" y1="19.8557" x2="23.085" y2="19.0741" gradientUnits="userSpaceOnUse">
<stop stop-color="#492847"/>
<stop offset="1" stop-color="#552D52" stop-opacity="0"/>
</linearGradient>
<radialGradient id="paint21_radial_980_281" cx="0" cy="0" r="1" gradientUnits="userSpaceOnUse" gradientTransform="translate(22.5877 19.2415) rotate(-106.254) scale(0.966997 1.13071)">
<stop offset="0.813951" stop-color="#594C4F" stop-opacity="0"/>
<stop offset="1" stop-color="#594C4F"/>
</radialGradient>
<linearGradient id="paint22_linear_980_281" x1="25.9434" y1="19.0098" x2="25.4188" y2="19.0098" gradientUnits="userSpaceOnUse">
<stop offset="0.225" stop-color="#594C4F"/>
<stop offset="1" stop-color="#392833"/>
</linearGradient>
<linearGradient id="paint23_linear_980_281" x1="26.085" y1="19.8557" x2="26.085" y2="19.0741" gradientUnits="userSpaceOnUse">
<stop stop-color="#492847"/>
<stop offset="1" stop-color="#552D52" stop-opacity="0"/>
</linearGradient>
<radialGradient id="paint24_radial_980_281" cx="0" cy="0" r="1" gradientUnits="userSpaceOnUse" gradientTransform="translate(25.5877 19.2415) rotate(-106.254) scale(0.966997 1.13071)">
<stop offset="0.813951" stop-color="#594C4F" stop-opacity="0"/>
<stop offset="1" stop-color="#594C4F"/>
</radialGradient>
<linearGradient id="paint25_linear_980_281" x1="28.0693" y1="38.9326" x2="28.0693" y2="37.5576" gradientUnits="userSpaceOnUse">
<stop offset="0.136364" stop-color="#FF5762"/>
<stop offset="1" stop-color="#FF5762" stop-opacity="0"/>
</linearGradient>
<radialGradient id="paint26_radial_980_281" cx="0" cy="0" r="1" gradientUnits="userSpaceOnUse" gradientTransform="translate(25.0215 37.4326) scale(4.25 8.69274)">
<stop offset="0.136364" stop-color="#FF5762"/>
<stop offset="1" stop-color="#FF5762" stop-opacity="0"/>
</radialGradient>
<radialGradient id="paint27_radial_980_281" cx="0" cy="0" r="1" gradientUnits="userSpaceOnUse" gradientTransform="translate(26.6152 37.4326) scale(8.4375 8.1987)">
<stop offset="0.587037" stop-color="#FF5762" stop-opacity="0"/>
<stop offset="1" stop-color="#FF5762"/>
</radialGradient>
<linearGradient id="paint28_linear_980_281" x1="28.0693" y1="38.6269" x2="28.0693" y2="37.9357" gradientUnits="userSpaceOnUse">
<stop stop-color="#F15CC7"/>
<stop offset="0.828473" stop-color="#F15CC7" stop-opacity="0"/>
</linearGradient>
<linearGradient id="paint29_linear_980_281" x1="19.8848" y1="38.6269" x2="19.8848" y2="37.9357" gradientUnits="userSpaceOnUse">
<stop stop-color="#F15CC7"/>
<stop offset="0.828473" stop-color="#F15CC7" stop-opacity="0"/>
</linearGradient>
<linearGradient id="paint30_linear_980_281" x1="24.5217" y1="37.9357" x2="19.4436" y2="37.9357" gradientUnits="userSpaceOnUse">
<stop stop-color="#F15CC7"/>
<stop offset="1" stop-color="#F15CC7" stop-opacity="0"/>
</linearGradient>
</defs>
</svg>
