<svg width="24" height="24" viewBox="0 0 24 24" fill="none" xmlns="http://www.w3.org/2000/svg">
<path fill-rule="evenodd" clip-rule="evenodd" d="M4.8869 15.2182L4.86006 17.1221C4.85212 17.6854 5.31079 18.144 5.87406 18.1361L7.77792 18.1092C8.29854 18.1019 8.79577 17.8918 9.16394 17.5237L15.6118 11.0758L11.9204 7.38432L5.47249 13.8322C5.10432 14.2004 4.89424 14.6976 4.8869 15.2182ZM13.1224 6.18224L16.8139 9.8737L17.1504 9.53718C18.1698 8.51782 18.1698 6.86509 17.1504 5.84573C16.131 4.82636 14.4783 4.82636 13.459 5.84573L13.1224 6.18224Z" fill="#594F77"/>
<path fill-rule="evenodd" clip-rule="evenodd" d="M12.3037 18.8151C12.3037 18.3456 12.6843 17.9651 13.1537 17.9651H20.1525C20.622 17.9651 21.0025 18.3456 21.0025 18.8151C21.0025 19.2845 20.622 19.6651 20.1525 19.6651H13.1537C12.6843 19.6651 12.3037 19.2845 12.3037 18.8151Z" fill="#594F77"/>
</svg>
