<svg width="24" height="24" viewBox="0 0 24 24" fill="none" xmlns="http://www.w3.org/2000/svg">
<path fill-rule="evenodd" clip-rule="evenodd" d="M7.39889 7.39896C7.06695 7.7309 7.06695 8.2691 7.39889 8.60104L15.8842 17.0863C16.2161 17.4183 16.7543 17.4183 17.0863 17.0863C17.4182 16.7544 17.4182 16.2162 17.0863 15.8842L8.60097 7.39896C8.26903 7.06701 7.73084 7.06701 7.39889 7.39896Z" fill="#594F77"/>
<path fill-rule="evenodd" clip-rule="evenodd" d="M17.0862 7.39896C17.4182 7.7309 17.4182 8.2691 17.0862 8.60104L8.60093 17.0863C8.26899 17.4183 7.7308 17.4183 7.39885 17.0863C7.06691 16.7544 7.06691 16.2162 7.39885 15.8842L15.8841 7.39896C16.2161 7.06701 16.7543 7.06701 17.0862 7.39896Z" fill="#594F77"/>
</svg>
